<?xml version="1.0" encoding="iso-8859-1"?>
<!-- Generator: Adobe Illustrator 16.0.0, SVG Export Plug-In . SVG Version: 6.00 Build 0)  -->
<!DOCTYPE svg PUBLIC "-//W3C//DTD SVG 1.1//EN" "http://www.w3.org/Graphics/SVG/1.1/DTD/svg11.dtd">
<svg version="1.1" id="Capa_1" xmlns="http://www.w3.org/2000/svg" xmlns:xlink="http://www.w3.org/1999/xlink" x="0px" y="0px"
	 width="49.957px" height="49.956px" viewBox="0 0 49.957 49.956" style="enable-background:new 0 0 49.957 49.956;"
	 xml:space="preserve">
<g>
	<path d="M26.759,21.335h1.323l-1.323-3.236v-0.783c5.936-0.613,10.498-4.227,10.498-8.606c0-4.812-5.496-8.71-12.28-8.71
		c-6.783,0-12.279,3.898-12.279,8.709c0,4.523,4.865,8.24,11.086,8.665v0.715l-1.328,3.246h1.328v28.621h2.975v-0.515h8.623v-2.354
		h-3.779v-1.345h-2.59v-2.538h2.59v-1.346h3.779v-2.603h-8.623V21.335z M22.525,4.754c0-1.355,1.098-2.453,2.454-2.453
		c1.357,0,2.455,1.098,2.455,2.453c0,1.356-1.098,2.454-2.455,2.454C23.623,7.208,22.525,6.11,22.525,4.754z"/>
</g>
<g>
</g>
<g>
</g>
<g>
</g>
<g>
</g>
<g>
</g>
<g>
</g>
<g>
</g>
<g>
</g>
<g>
</g>
<g>
</g>
<g>
</g>
<g>
</g>
<g>
</g>
<g>
</g>
<g>
</g>
</svg>
